nColumns=19
nRows=74
DataType=double
version=3
OpenSimVersion=4.1
endheader
time	ground_force_1_vx	ground_force_1_vy	ground_force_1_vz	ground_force_1_px	ground_force_1_py	ground_force_1_pz	ground_force_1_mx	ground_force_1_my	ground_force_1_mz	ground_force_2_vx	ground_force_2_vy	ground_force_2_vz	ground_force_2_px	ground_force_2_py	ground_force_2_pz	ground_force_2_mx	ground_force_2_my	ground_force_2_mz
0.8	0	0	0	1.20919	0	-0.217188	0	0	0	0	0	0	0.361505	0	-0.381561	0	0	0
0.805	0	0	0	1.24349	0	-0.218513	0	0	0	0	0	0	0.340144	0	-0.380766	0	0	0
0.81	0	0	0	1.27623	0	-0.220174	0	0	0	0	0	0	0.322363	0	-0.377404	0	0	0
0.815	0	0	0	1.30695	0	-0.221912	0	0	0	0	0	0	0.307156	0	-0.369912	0	0	0
0.82	0	0	0	1.33568	0	-0.22336	0	0	0	0	0	0	0.290003	0	-0.361755	0	0	0
0.825	0	0	0	1.36184	0	-0.224048	0	0	0	0	0	0	0.275624	0	-0.35363	0	0	0
0.83	0	0	0	1.38545	0	-0.224284	0	0	0	0	0	0	0.264201	0	-0.346145	0	0	0
0.835	0	0	0	1.40594	0	-0.22363	0	0	0	0	0	0	0.254779	0	-0.338994	0	0	0
0.84	0	0	0	1.42285	0	-0.222172	0	0	0	0	0	0	0.245515	0	-0.333376	0	0	0
0.845	0	0	0	1.43484	0	-0.219775	0	0	0	0	0	0	0.237936	0	-0.329485	0	0	0
0.85	0	0	0	1.44594	0	-0.21705	0	0	0	0	0	0	0.233514	0	-0.326519	0	0	0
0.855	0	0	0	1.45184	0	-0.214057	0	0	0	0	0	0	0.232474	0	-0.325003	0	0	0
0.86	0	0	0	1.45454	0	-0.211511	0	0	0	0	0	0	0.234235	0	-0.323754	0	0	0
0.865	0	0	0	1.45396	0	-0.209393	0	0	0	0	0	0	0.238972	0	-0.323914	0	0	0
0.87	0	0	0	1.44986	0	-0.207645	0	0	0	0	0	0	0.24639	0	-0.324497	0	0	0
0.875	0	0	0	1.44244	0	-0.206035	0	0	0	0	0	0	0.254962	0	-0.32624	0	0	0
0.88	0	0	0	1.43123	0	-0.204513	0	0	0	0	0	0	0.266326	0	-0.32709	0	0	0
0.885	0	0	0	1.41755	0	-0.202389	0	0	0	0	0	0	0.279265	0	-0.329099	0	0	0
0.89	0	0	0	1.40123	0	-0.199732	0	0	0	0	0	0	0.293735	0	-0.33088	0	0	0
0.895	0	0	0	1.3818	0	-0.196499	0	0	0	0	0	0	0.309383	0	-0.332239	0	0	0
0.9	0	0	0	1.36084	0	-0.193178	0	0	0	0	0	0	0.326657	0	-0.333641	0	0	0
0.905	0	0	0	1.33701	0	-0.189791	0	0	0	0	0	0	0.344866	0	-0.335461	0	0	0
0.91	-27.1913	28.7356	31.2979	1.3109	0	-0.185966	0	18.2269	0	0	0	0	0.363903	0	-0.336945	0	0	0
0.915	-73.9346	138.381	9.45757	1.21617	0	-0.162338	0	11.547	0	0	0	0	0.384112	0	-0.338304	0	0	0
0.92	-147.794	319.759	-29.7921	1.11847	0	-0.142017	0	7.55081	0	0	0	0	0.404886	0	-0.33956	0	0	0
0.925	-241.945	564.696	-87.9957	1.12406	0	-0.151524	0	0.096985	0	0	0	0	0.426478	0	-0.339898	0	0	0
0.93	-330.143	841.974	-167.665	1.12997	0	-0.160567	0	-12.6026	0	0	0	0	0.448237	0	-0.340479	0	0	0
0.935	-383.946	1139.03	-257.635	1.12806	0	-0.169782	0	-21.6507	0	0	0	0	0.470808	0	-0.341658	0	0	0
0.94	-408.217	1463.6	-336.108	1.1104	0	-0.179034	0	-14.4578	0	0	0	0	0.493152	0	-0.342831	0	0	0
0.945	-431.184	1808.29	-380.414	1.08242	0	-0.186904	0	1.57219	0	0	0	0	0.516269	0	-0.343054	0	0	0
0.95	-466.113	2141.25	-375.136	1.05608	0	-0.192216	0	10.2367	0	0	0	0	0.539685	0	-0.341587	0	0	0
0.955	-504.743	2427.04	-314.113	1.03525	0	-0.195259	0	10.395	0	0	0	0	0.56409	0	-0.342518	0	0	0
0.96	-529.536	2642.39	-203.922	1.0155	0	-0.196832	0	11.5495	0	0	0	0	0.589134	0	-0.342291	0	0	0
0.965	-527.209	2778.78	-72.4443	0.991918	0	-0.197791	0	16.2702	0	0	0	0	0.61536	0	-0.341363	0	0	0
0.97	-489.501	2841.05	40.8766	0.962368	0	-0.198239	0	18.4142	0	0	0	0	0.642018	0	-0.342097	0	0	0
0.975	-410.403	2850.26	97.5807	0.927085	0	-0.198817	0	11.9854	0	0	0	0	0.670257	0	-0.342341	0	0	0
0.98	-293.526	2833.44	87.3135	0.888104	0	-0.200132	0	1.57631	0	0	0	0	0.69957	0	-0.342677	0	0	0
0.985	-154.812	2798.56	33.1535	0.848923	0	-0.202098	0	0.303709	0	0	0	0	0.730485	0	-0.342773	0	0	0
0.99	-19.32	2732.76	-26.1975	0.812145	0	-0.203741	0	10.981	0	0	0	0	0.76283	0	-0.343422	0	0	0
0.995	97.1939	2627.11	-66.0057	0.779215	0	-0.204502	0	20.0834	0	0	0	0	0.797087	0	-0.343859	0	0	0
1	197.791	2485.82	-85.5915	0.751758	0	-0.204507	0	16.874	0	0	0	0	0.832388	0	-0.344332	0	0	0
1.005	287.128	2310.07	-98.8495	0.730014	0	-0.204281	0	6.40745	0	0	0	0	0.869187	0	-0.345261	0	0	0
1.01	358.261	2089.8	-118.119	0.711472	0	-0.204357	0	1.9951	0	0	0	0	0.907631	0	-0.347261	0	0	0
1.015	400.851	1817.88	-143.838	0.691575	0	-0.204962	0	12.1482	0	0	0	0	0.945888	0	-0.348575	0	0	0
1.02	417.706	1503.12	-163.868	0.66536	0	-0.205953	0	31.9016	0	0	0	0	0.984963	0	-0.350133	0	0	0
1.025	419.297	1167.08	-160.485	0.625476	0	-0.206703	0	44.9399	0	0	0	0	1.02304	0	-0.352763	0	0	0
1.03	406.527	834.479	-122.178	0.555203	0	-0.20569	0	38.382	0	0	0	0	1.06043	0	-0.355754	0	0	0
1.035	374.894	529.948	-52.7728	0.417349	0	-0.199229	0	6.84023	0	0	0	0	1.09758	0	-0.359777	0	0	0
1.04	324.078	279.148	23.5712	0.101283	0	-0.179457	0	-56.8204	0	0	0	0	1.1339	0	-0.364218	0	0	0
1.045	258.918	105.502	75.4632	0.278836	0	-0.18538	0	-198.304	0	0	0	0	1.16983	0	-0.369268	0	0	0
1.05	0	0	0	0.368654	0	-0.188921	0	0	0	0	0	0	1.20496	0	-0.373873	0	0	0
1.055	0	0	0	0.342977	0	-0.185054	0	0	0	0	0	0	1.23941	0	-0.377669	0	0	0
1.06	0	0	0	0.318481	0	-0.179405	0	0	0	0	0	0	1.27324	0	-0.380845	0	0	0
1.065	0	0	0	0.295601	0	-0.172254	0	0	0	0	0	0	1.30646	0	-0.382572	0	0	0
1.07	0	0	0	0.270236	0	-0.166829	0	0	0	0	0	0	1.3384	0	-0.38563	0	0	0
1.075	0	0	0	0.248375	0	-0.162706	0	0	0	0	0	0	1.36847	0	-0.388642	0	0	0
1.08	0	0	0	0.230195	0	-0.158549	0	0	0	0	0	0	1.39673	0	-0.392062	0	0	0
1.085	0	0	0	0.213494	0	-0.155309	0	0	0	0	0	0	1.42155	0	-0.394907	0	0	0
1.09	0	0	0	0.198326	0	-0.155407	0	0	0	0	0	0	1.44205	0	-0.398088	0	0	0
1.095	0	0	0	0.184474	0	-0.156882	0	0	0	0	0	0	1.45786	0	-0.401054	0	0	0
1.1	0	0	0	0.173235	0	-0.160329	0	0	0	0	0	0	1.46717	0	-0.403669	0	0	0
1.105	0	0	0	0.163496	0	-0.166419	0	0	0	0	0	0	1.47456	0	-0.405422	0	0	0
1.11	0	0	0	0.159366	0	-0.171682	0	0	0	0	0	0	1.47579	0	-0.407246	0	0	0
1.115	0	0	0	0.158088	0	-0.179082	0	0	0	0	0	0	1.47088	0	-0.410349	0	0	0
1.12	0	0	0	0.159215	0	-0.186554	0	0	0	0	0	0	1.46519	0	-0.412626	0	0	0
1.125	0	0	0	0.165906	0	-0.19437	0	0	0	0	0	0	1.45592	0	-0.415258	0	0	0
1.13	0	0	0	0.173631	0	-0.201695	0	0	0	0	0	0	1.44292	0	-0.41806	0	0	0
1.135	0	0	0	0.183614	0	-0.208439	0	0	0	0	0	0	1.42705	0	-0.419297	0	0	0
1.14	0	0	0	0.196045	0	-0.213874	0	0	0	0	0	0	1.40865	0	-0.418899	0	0	0
1.145	0	0	0	0.210508	0	-0.218568	0	0	0	0	0	0	1.38772	0	-0.416612	0	0	0
1.15	0	0	0	0.226994	0	-0.221753	0	0	0	0	0	0	1.36436	0	-0.412715	0	0	0
1.155	0	0	0	0.244898	0	-0.224541	0	0	0	0	0	0	1.33882	0	-0.407682	0	0	0
1.16	0	0	0	0.26437	0	-0.226395	0	0	0	-23.8942	21.4036	-17.0082	1.31115	0	-0.402887	0	-18.0541	0
1.165	0	0	0	0.285203	0	-0.227571	0	0	0	-52.3217	139.137	-7.06697	1.23942	0	-0.419582	0	-9.16551	0
